<?xml version="1.0" encoding="utf-8"?>
<!-- Generator: Adobe Illustrator 22.0.1, SVG Export Plug-In . SVG Version: 6.00 Build 0)  -->
<svg version="1.1" id="Layer_1" xmlns="http://www.w3.org/2000/svg" xmlns:xlink="http://www.w3.org/1999/xlink" x="0px" y="0px"
	 viewBox="0 0 133.5 134.4" style="enable-background:new 0 0 133.5 134.4;" xml:space="preserve">
<style type="text/css">
	.st0{fill:#F6861F;}
	.st1{fill:none;}
	.st2{fill:#552365;}
	.st3{font-family:'MyriadPro-Regular';}
	.st4{font-size:30.0706px;}
	.st5{font-size:16px;}
</style>
<path class="st0" d="M-1.6-0.8v136.2h136.2V-0.8H-1.6z M26.4,125.3l-5.1-2.7l-5.1,2.7l1-5.7l-4.1-4l5.7-0.8l2.5-5.2l2.5,5.2l5.7,0.8
	l-4.1,4L26.4,125.3z M25.4,16.5l1,5.7l-5.1-2.7l-5.1,2.7l1-5.7l-4.1-4l5.7-0.8l2.5-5.2l2.5,5.2l5.7,0.8L25.4,16.5z M48.5,125.3
	l-5.1-2.7l-5.1,2.7l1-5.7l-4.1-4l5.7-0.8l2.5-5.2l2.5,5.2l5.7,0.8l-4.1,4L48.5,125.3z M47.5,16.5l1,5.7l-5.1-2.7l-5.1,2.7l1-5.7
	l-4.1-4l5.7-0.8l2.5-5.2l2.5,5.2l5.7,0.8L47.5,16.5z M71.5,125.3l-5.1-2.7l-5.1,2.7l1-5.7l-4.1-4l5.7-0.8l2.5-5.2l2.5,5.2l5.7,0.8
	l-4.1,4L71.5,125.3z M70.5,16.5l1,5.7l-5.1-2.7l-5.1,2.7l1-5.7l-4.1-4l5.7-0.8l2.5-5.2l2.5,5.2l5.7,0.8L70.5,16.5z M94.8,125.3
	l-5.1-2.7l-5.1,2.7l1-5.7l-4.1-4l5.7-0.8l2.5-5.2l2.5,5.2l5.7,0.8l-4.1,4L94.8,125.3z M93.8,16.5l1,5.7l-5.1-2.7l-5.1,2.7l1-5.7
	l-4.1-4l5.7-0.8l2.5-5.2l2.5,5.2l5.7,0.8L93.8,16.5z M117.5,125.3l-5.1-2.7l-5.1,2.7l1-5.7l-4.1-4l5.7-0.8l2.5-5.2l2.5,5.2l5.7,0.8
	l-4.1,4L117.5,125.3z M116.6,16.5l1,5.7l-5.1-2.7l-5.1,2.7l1-5.7l-4.1-4l5.7-0.8l2.5-5.2l2.5,5.2l5.7,0.8L116.6,16.5z"/>
<rect x="33.2" y="37.3" class="st1" width="87.4" height="59.9"/>
<text transform="matrix(1 0 0 1 33.2289 58.6659)"><tspan x="0" y="0" class="st2 st3 st4">Flicks  </tspan><tspan x="0" y="36.1" class="st2 st3 st5">to</tspan><tspan x="14.1" y="36.1" class="st2 st3 st4"> See</tspan></text>
</svg>
